<?xml version="1.0" encoding="UTF-8"?>
<svg xmlns="http://www.w3.org/2000/svg" xmlns:xlink="http://www.w3.org/1999/xlink" width="256pt" height="256pt" viewBox="0 0 256 256" version="1.1">
<g id="surface1">
<path style=" stroke:none;fill-rule:nonzero;fill:rgb(100%,0%,0%);fill-opacity:1;" d="M 127.976562 0.03125 C 93.605469 0.03125 62.03125 13.128906 37.671875 37.484375 C 13.316406 61.839844 0.21875 93.417969 0.21875 127.789062 C 0.21875 162.160156 13.316406 193.734375 37.671875 218.089844 C 58.125 238.542969 83.6875 251.058594 112.617188 254.78125 C 123.976562 256.246094 141.390625 255.503906 153.804688 253.03125 C 198.496094 244.125 236.679688 209.507812 250.0625 165.765625 C 264.101562 119.871094 252.058594 71.261719 218.28125 37.484375 C 193.921875 13.128906 162.347656 0.03125 127.976562 0.03125 Z M 126.8125 10.050781 C 145.300781 9.882812 163.777344 14.070312 180.617188 22.507812 C 203.695312 34.070312 221.695312 52.066406 233.257812 75.148438 C 249.878906 108.324219 249.878906 147.253906 233.257812 180.429688 C 227.457031 192.003906 221.679688 200.144531 212.476562 209.703125 C 193.003906 229.929688 167.222656 242.261719 138.546875 245.0625 C 117.160156 247.152344 95.089844 242.964844 75.335938 233.066406 C 63.757812 227.269531 55.621094 221.492188 46.0625 212.289062 C 9.191406 176.796875 -0.304688 121.058594 22.695312 75.148438 C 36.523438 47.550781 60.273438 26.671875 89.363281 16.546875 C 101.507812 12.320312 114.164062 10.167969 126.8125 10.050781 Z M 126.8125 10.050781 "/>
<path style=" stroke:none;fill-rule:nonzero;fill:rgb(100%,0%,0%);fill-opacity:1;" d="M 127.675781 203.890625 C 84.613281 203.890625 49.582031 168.859375 49.582031 125.796875 C 49.582031 82.734375 84.613281 47.699219 127.675781 47.699219 C 170.738281 47.699219 205.773438 82.734375 205.773438 125.796875 C 205.773438 168.859375 170.738281 203.890625 127.675781 203.890625 Z M 127.675781 51.316406 C 86.609375 51.316406 53.199219 84.726562 53.199219 125.796875 C 53.199219 166.863281 86.609375 200.273438 127.675781 200.273438 C 168.746094 200.273438 202.15625 166.863281 202.15625 125.796875 C 202.15625 84.726562 168.746094 51.316406 127.675781 51.316406 Z M 127.675781 51.316406 "/>
<path style=" stroke:none;fill-rule:nonzero;fill:rgb(100%,0%,0%);fill-opacity:1;" d="M 118.113281 119.554688 L 117.921875 118.210938 C 150.84375 113.464844 169.019531 94.644531 175.308594 86.777344 L 176.367188 87.625 C 169.980469 95.617188 151.515625 114.738281 118.113281 119.554688 Z M 118.113281 119.554688 "/>
<path style=" stroke:none;fill-rule:nonzero;fill:rgb(100%,0%,0%);fill-opacity:1;" d="M 123.359375 118.765625 C 123.359375 121.582031 121.074219 123.867188 118.257812 123.867188 C 115.4375 123.867188 113.15625 121.582031 113.15625 118.765625 C 113.15625 115.945312 115.4375 113.664062 118.257812 113.664062 C 121.074219 113.664062 123.359375 115.945312 123.359375 118.765625 Z M 123.359375 118.765625 "/>
<path style=" stroke:none;fill-rule:nonzero;fill:rgb(100%,0%,0%);fill-opacity:1;" d="M 180.75 87.378906 C 180.75 90.199219 178.464844 92.484375 175.648438 92.484375 C 172.828125 92.484375 170.542969 90.199219 170.542969 87.378906 C 170.542969 84.5625 172.828125 82.277344 175.648438 82.277344 C 178.464844 82.277344 180.75 84.5625 180.75 87.378906 Z M 180.75 87.378906 "/>
<path style=" stroke:none;fill-rule:nonzero;fill:rgb(100%,0%,0%);fill-opacity:1;" d="M 98.503906 181.875 C 92.199219 173.9375 82.199219 157.378906 86.027344 135.648438 L 87.363281 135.882812 C 83.625 157.09375 93.402344 173.273438 99.5625 181.03125 Z M 98.503906 181.875 "/>
<path style=" stroke:none;fill-rule:nonzero;fill:rgb(100%,0%,0%);fill-opacity:1;" d="M 91.792969 136.023438 C 91.792969 138.839844 89.507812 141.125 86.691406 141.125 C 83.871094 141.125 81.589844 138.839844 81.589844 136.023438 C 81.589844 133.207031 83.871094 130.921875 86.691406 130.921875 C 89.507812 130.921875 91.792969 133.207031 91.792969 136.023438 Z M 91.792969 136.023438 "/>
<path style=" stroke:none;fill-rule:nonzero;fill:rgb(100%,0%,0%);fill-opacity:1;" d="M 103.976562 181.246094 C 103.976562 184.0625 101.691406 186.347656 98.875 186.347656 C 96.058594 186.347656 93.773438 184.0625 93.773438 181.246094 C 93.773438 178.429688 96.058594 176.144531 98.875 176.144531 C 101.691406 176.144531 103.976562 178.429688 103.976562 181.246094 Z M 103.976562 181.246094 "/>
<path style=" stroke:none;fill-rule:nonzero;fill:rgb(100%,0%,0%);fill-opacity:1;" d="M 179.335938 140.78125 L 177.980469 140.746094 C 178.453125 123.785156 171.96875 107.550781 159.71875 95.035156 C 146.964844 82 129.160156 74.605469 110.824219 74.710938 L 110.8125 73.355469 C 129.488281 73.285156 147.679688 80.792969 160.6875 94.085938 C 173.195312 106.867188 179.820312 123.449219 179.335938 140.78125 Z M 179.335938 140.78125 "/>
<path style=" stroke:none;fill-rule:nonzero;fill:rgb(100%,0%,0%);fill-opacity:1;" d="M 183.667969 140.507812 C 183.667969 143.324219 181.382812 145.609375 178.566406 145.609375 C 175.75 145.609375 173.464844 143.324219 173.464844 140.507812 C 173.464844 137.6875 175.75 135.402344 178.566406 135.402344 C 181.382812 135.402344 183.667969 137.6875 183.667969 140.507812 Z M 183.667969 140.507812 "/>
<path style=" stroke:none;fill-rule:nonzero;fill:rgb(100%,0%,0%);fill-opacity:1;" d="M 116.167969 74.128906 C 116.167969 76.945312 113.886719 79.230469 111.066406 79.230469 C 108.25 79.230469 105.964844 76.945312 105.964844 74.128906 C 105.964844 71.308594 108.25 69.027344 111.066406 69.027344 C 113.886719 69.027344 116.167969 71.308594 116.167969 74.128906 Z M 116.167969 74.128906 "/>
<path style=" stroke:none;fill-rule:nonzero;fill:rgb(100%,0%,0%);fill-opacity:1;" d="M 137.445312 178.371094 C 96.519531 176.355469 68.769531 149.554688 56.449219 125.148438 C 47.390625 107.207031 45.972656 89.722656 52.75 79.519531 C 57.125 72.933594 64.648438 69.820312 74.476562 70.503906 L 74.382812 71.855469 C 65.042969 71.203125 57.96875 74.117188 53.878906 80.269531 C 47.371094 90.066406 48.816406 107.027344 57.65625 124.539062 C 69.804688 148.605469 97.164062 175.027344 137.511719 177.015625 Z M 137.445312 178.371094 "/>
<path style=" stroke:none;fill-rule:nonzero;fill:rgb(100%,0%,0%);fill-opacity:1;" d="M 142.328125 177.605469 C 142.328125 180.421875 140.042969 182.707031 137.226562 182.707031 C 134.40625 182.707031 132.121094 180.421875 132.121094 177.605469 C 132.121094 174.789062 134.40625 172.503906 137.226562 172.503906 C 140.042969 172.503906 142.328125 174.789062 142.328125 177.605469 Z M 142.328125 177.605469 "/>
<path style=" stroke:none;fill-rule:nonzero;fill:rgb(100%,0%,0%);fill-opacity:1;" d="M 79.867188 185.980469 C 60.953125 182.882812 48.144531 169.234375 47.234375 151.21875 C 46.359375 133.886719 57.027344 113.28125 82.835938 106.316406 L 83.1875 107.628906 C 58.109375 114.394531 47.738281 134.359375 48.589844 151.148438 C 49.289062 164.960938 57.929688 181.011719 80.089844 184.644531 Z M 79.867188 185.980469 "/>
<path style=" stroke:none;fill-rule:nonzero;fill:rgb(100%,0%,0%);fill-opacity:1;" d="M 87.875 107.050781 C 87.875 109.871094 85.589844 112.152344 82.769531 112.152344 C 79.953125 112.152344 77.667969 109.871094 77.667969 107.050781 C 77.667969 104.234375 79.953125 101.949219 82.769531 101.949219 C 85.589844 101.949219 87.875 104.234375 87.875 107.050781 Z M 87.875 107.050781 "/>
<path style=" stroke:none;fill-rule:nonzero;fill:rgb(100%,0%,0%);fill-opacity:1;" d="M 168.25 206.40625 C 167.664062 206.40625 167.066406 206.378906 166.464844 206.320312 C 155 205.253906 144.617188 194.667969 138.683594 177.992188 L 139.964844 177.535156 C 145.714844 193.699219 155.664062 203.953125 166.589844 204.96875 C 172.46875 205.527344 177.671875 203.160156 180.195312 198.824219 C 182.804688 194.339844 182.050781 188.535156 178.125 182.910156 L 179.234375 182.132812 C 183.480469 188.210938 184.253906 194.542969 181.367188 199.507812 C 178.839844 203.851562 173.914062 206.40625 168.25 206.40625 Z M 168.25 206.40625 "/>
<path style=" stroke:none;fill-rule:nonzero;fill:rgb(100%,0%,0%);fill-opacity:1;" d="M 151.320312 69.574219 L 150.03125 69.148438 C 153.113281 59.800781 158.558594 53.777344 164.972656 52.628906 C 168.921875 51.917969 172.804688 53.265625 175.097656 56.136719 C 177.359375 58.972656 177.726562 62.792969 176.101562 66.609375 L 174.855469 66.082031 C 176.277344 62.734375 175.980469 59.417969 174.039062 56.980469 C 172.058594 54.503906 168.675781 53.347656 165.214844 53.964844 C 159.304688 55.023438 154.242188 60.714844 151.320312 69.574219 Z M 151.320312 69.574219 "/>
<path style=" stroke:none;fill-rule:nonzero;fill:rgb(100%,0%,0%);fill-opacity:1;" d="M 155.886719 69.125 C 155.886719 71.945312 153.601562 74.226562 150.78125 74.226562 C 147.964844 74.226562 145.679688 71.945312 145.679688 69.125 C 145.679688 66.308594 147.964844 64.023438 150.78125 64.023438 C 153.601562 64.023438 155.886719 66.308594 155.886719 69.125 Z M 155.886719 69.125 "/>
</g>
</svg>
