<?xml version="1.0" encoding="UTF-8" standalone="no"?>
<svg
   xmlns:dc="http://purl.org/dc/elements/1.1/"
   xmlns:cc="http://creativecommons.org/ns#"
   xmlns:rdf="http://www.w3.org/1999/02/22-rdf-syntax-ns#"
   xmlns:svg="http://www.w3.org/2000/svg"
   xmlns="http://www.w3.org/2000/svg"
   viewBox="0 0 313.67866 313.67865"
   height="313.67865"
   width="313.67865"
   preserveAspectRatio="none"
   id="svg2"
   version="1.1">
  <metadata
     id="metadata42">
    <rdf:RDF>
      <cc:Work
         rdf:about="">
        <dc:format>image/svg+xml</dc:format>
        <dc:type
           rdf:resource="http://purl.org/dc/dcmitype/StillImage" />
        <dc:title></dc:title>
      </cc:Work>
    </rdf:RDF>
  </metadata>
  <defs
     id="defs40" />
  <path
     d="M156.97035.04053123c-42.15786 0-80.887333 16.06218177-110.761854 45.93671477C16.333975 75.851768.2701266 114.58289.2701266 156.74076c0 42.15784 16.0638484 80.88732 45.9383694 110.76184 25.08607 25.08606 56.439694 40.43604 91.923574 45.00348 13.93305 1.79344 35.29433.88478 50.52083-2.14908 54.81482-10.92177 101.64899-53.38068 118.06201-107.03398 17.22035-56.29237 2.44974-115.914994-38.98104-157.345774C237.85933 16.102713 199.12819.04053123 156.97035.04053123zM155.54376 12.32956c22.67776-.206152 45.33902 4.929451 65.99418 15.277676 28.30817 14.182384 50.38355 36.257757 64.56593 64.565938 20.38625 40.691156 20.38625 88.442356 0 129.133496-7.11393 14.19949-14.20017 24.18172-25.48619 35.90546-23.88516 24.81145-55.50883 39.93892-90.6793 43.37452-26.23397 2.56265-53.30529-2.57551-77.533957-14.71406-14.199488-7.11393-24.183372-14.19848-35.90712-25.48453-45.22571-43.5372-56.87197362-111.90111-28.658791-168.214886C44.797256 58.323334 73.9297 32.716087 109.60874 20.29703c14.89464-5.184482 30.41866-7.826404 45.93502-7.96747z"
     fill="#e2e8e7"
     id="path4"
     style="fill:#f6c574;fill-opacity:1" />
  <g
     style="fill:#f6c574;fill-opacity:1"
     transform="matrix(2.0137489,0,0,2.0137489,60.576227,47.740495)"
     id="g4164">
    <path
       style="fill:#f6c574;fill-opacity:1"
       d="m 60.4,57.2 c -5,5.8 -12.4,9.5 -20.6,9.5 -4.3,0 -8.5,-1 -12.1,-2.8 C 17.4,71.2 10.5,83 10.1,96.5 l 83,0 C 92.5,77.2 78.7,61.2 60.4,57.2 Z"
       id="path4152" />
    <polygon
       style="fill:#f6c574;fill-opacity:1"
       points="62.5,16 62.5,4.8 51.1,16 39.6,4.8 28.2,16 16.8,4.8 16.8,16 16.8,26.9 62.5,26.9 62.5,16 "
       id="polygon4154" />
    <path
       style="fill:#f6c574;fill-opacity:1"
       d="m 59.1,30.2 -38.6,0 c -1.4,2.8 -2.1,6 -2.1,9.3 0,11.8 9.6,21.4 21.4,21.4 11.8,0 21.4,-9.6 21.4,-21.4 0,-3.3 -0.8,-6.5 -2.1,-9.3 z m -31.3,9.7 c -0.6,0 -1.1,-0.5 -1.1,-1.1 l -2.4,0 0,-1.1 3.5,0 c 0,0 0,0 0,0 0,0 0,0 0,0 l 3.5,0 0,1.1 -2.3,0 c 0,0.6 -0.5,1.1 -1.2,1.1 z m 11.1,10.3 -9.3,0 0,-1.1 9.3,0 0,1.1 z m 3.7,-11.4 -2.4,0 c 0,0.6 -0.5,1.1 -1.1,1.1 -0.6,0 -1.1,-0.5 -1.1,-1.1 l -2.4,0 0,-1.1 3.5,0 c 0,0 0,0 0,0 0,0 0,0 0,0 l 3.5,0 0,1.1 z"
       id="path4156" />
  </g>
</svg>
