<?xml version="1.0" encoding="UTF-8" standalone="no"?>
<svg
   xmlns:dc="http://purl.org/dc/elements/1.1/"
   xmlns:cc="http://creativecommons.org/ns#"
   xmlns:rdf="http://www.w3.org/1999/02/22-rdf-syntax-ns#"
   xmlns:svg="http://www.w3.org/2000/svg"
   xmlns="http://www.w3.org/2000/svg"
   version="1.1"
   id="svg2"
   preserveAspectRatio="none"
   width="313.67865"
   height="313.67865"
   viewBox="0 0 313.67866 313.67865">
  <metadata
     id="metadata42">
    <rdf:RDF>
      <cc:Work
         rdf:about="">
        <dc:format>image/svg+xml</dc:format>
        <dc:type
           rdf:resource="http://purl.org/dc/dcmitype/StillImage" />
        <dc:title></dc:title>
      </cc:Work>
    </rdf:RDF>
  </metadata>
  <defs
     id="defs40" />
  <path
     style="fill:#ff0000;fill-opacity:1"
     id="path4"
     fill="#e2e8e7"
     d="M156.97035.04053123c-42.15786 0-80.887333 16.06218177-110.761854 45.93671477C16.333975 75.851768.2701266 114.58289.2701266 156.74076c0 42.15784 16.0638484 80.88732 45.9383694 110.76184 25.08607 25.08606 56.439694 40.43604 91.923574 45.00348 13.93305 1.79344 35.29433.88478 50.52083-2.14908 54.81482-10.92177 101.64899-53.38068 118.06201-107.03398 17.22035-56.29237 2.44974-115.914994-38.98104-157.345774C237.85933 16.102713 199.12819.04053123 156.97035.04053123zM155.54376 12.32956c22.67776-.206152 45.33902 4.929451 65.99418 15.277676 28.30817 14.182384 50.38355 36.257757 64.56593 64.565938 20.38625 40.691156 20.38625 88.442356 0 129.133496-7.11393 14.19949-14.20017 24.18172-25.48619 35.90546-23.88516 24.81145-55.50883 39.93892-90.6793 43.37452-26.23397 2.56265-53.30529-2.57551-77.533957-14.71406-14.199488-7.11393-24.183372-14.19848-35.90712-25.48453-45.22571-43.5372-56.87197362-111.90111-28.658791-168.214886C44.797256 58.323334 73.9297 32.716087 109.60874 20.29703c14.89464-5.184482 30.41866-7.826404 45.93502-7.96747z" />
  <path
     id="path4180"
     d="m 156.60445,250.08568 c -52.81903,0 -95.789689,-42.97066 -95.789689,-95.78969 0,-52.81903 42.970659,-95.789696 95.789689,-95.789696 52.81903,0 95.7897,42.970666 95.7897,95.789696 0,52.81903 -42.97067,95.78969 -95.7897,95.78969 z m 0,-187.141185 c -50.37136,0 -91.351488,40.980125 -91.351488,91.351495 0,50.37136 40.980128,91.35149 91.351488,91.35149 50.37137,0 91.35149,-40.98013 91.35149,-91.35149 0,-50.37137 -40.98012,-91.351495 -91.35149,-91.351495 z"
     style="fill:#ff0000;fill-opacity:1;fill-rule:nonzero;stroke:none;stroke-opacity:1;stroke-width:0.1;stroke-miterlimit:4;stroke-dasharray:none" />
  <path
     id="path4182"
     d="m 144.87429,146.64009 -0.23745,-1.64657 c 40.38319,-5.8207 62.6785,-28.90379 70.38987,-38.55687 l 1.30039,1.03853 c -7.83564,9.80621 -30.48156,33.25988 -71.45281,39.16491 z"
     style="fill:#ff0000;fill-opacity:1;fill-rule:nonzero;stroke:none;stroke-opacity:1;stroke-width:7.08661417;stroke-miterlimit:4;stroke-dasharray:none" />
  <circle
     id="circle4184"
     r="6.257863"
     cy="145.67256"
     cx="145.04959"
     style="fill:#ff0000;fill-opacity:1;fill-rule:nonzero;stroke:none;stroke-opacity:1;stroke-width:0.1;stroke-miterlimit:4;stroke-dasharray:none" />
  <circle
     id="circle4186"
     r="6.257863"
     cy="107.17783"
     cx="215.44168"
     style="fill:#ff0000;fill-opacity:1;fill-rule:nonzero;stroke:none;stroke-opacity:1;stroke-width:0.1;stroke-miterlimit:4;stroke-dasharray:none" />
  <path
     id="path4188"
     d="m 120.81924,223.08144 c -7.73135,-9.73519 -19.99854,-30.0444 -15.3007,-56.70245 l 1.6377,0.2907 c -4.58467,26.01452 7.40735,45.85993 14.96339,55.37543 l -1.30039,1.03632 z"
     style="fill:#ff0000;fill-opacity:1;fill-rule:nonzero;stroke:none;stroke-opacity:1;stroke-width:0.1;stroke-miterlimit:4;stroke-dasharray:none" />
  <circle
     id="circle4190"
     r="6.257863"
     cy="166.84056"
     cx="106.33073"
     style="fill:#ff0000;fill-opacity:1;fill-rule:nonzero;stroke:none;stroke-opacity:1;stroke-width:0.1;stroke-miterlimit:4;stroke-dasharray:none" />
  <circle
     id="circle4192"
     r="6.257863"
     cy="222.3092"
     cx="121.27637"
     style="fill:#ff0000;fill-opacity:1;fill-rule:nonzero;stroke:none;stroke-opacity:1;stroke-width:0.1;stroke-miterlimit:4;stroke-dasharray:none" />
  <path
     id="path4194"
     d="m 219.96643,172.67901 -1.66433,-0.0466 c 0.58141,-20.80406 -7.37185,-40.71605 -22.39738,-56.06557 -15.64466,-15.9864 -37.48282,-25.058084 -59.97341,-24.927157 l -0.0111,-1.664325 c 22.90333,-0.08876 45.21639,9.120503 61.17394,25.426452 15.34286,15.67573 23.46477,36.01822 22.87227,57.2772 z"
     style="fill:#ff0000;fill-opacity:1;fill-rule:nonzero;stroke:none;stroke-opacity:1;stroke-width:0.1;stroke-miterlimit:4;stroke-dasharray:none" />
  <circle
     id="circle4196"
     r="6.257863"
     cy="172.33949"
     cx="219.02332"
     style="fill:#ff0000;fill-opacity:1;fill-rule:nonzero;stroke:none;stroke-opacity:1;stroke-width:0.1;stroke-miterlimit:4;stroke-dasharray:none" />
  <circle
     id="circle4198"
     r="6.257863"
     cy="90.922913"
     cx="136.2309"
     style="fill:#ff0000;fill-opacity:1;fill-rule:nonzero;stroke:none;stroke-opacity:1;stroke-width:0.1;stroke-miterlimit:4;stroke-dasharray:none" />
  <path
     id="path4200"
     d="M 168.58538,218.78527 C 118.38489,216.30875 84.350541,183.43943 69.236247,153.50377 58.125211,131.49473 56.387655,110.04934 64.702625,97.533614 70.06841,89.456088 79.293211,85.637017 91.351803,86.475837 L 91.23641,88.135724 C 79.776975,87.334628 71.102511,90.90738 66.087344,98.454541 58.10302,110.47319 59.8783,131.27726 70.720825,152.75371 c 14.90126,29.51848 48.458495,61.92622 97.946655,64.36723 l -0.0821,1.66433 z"
     style="fill:#ff0000;fill-opacity:1;fill-rule:nonzero;stroke:none;stroke-opacity:1;stroke-width:0.1;stroke-miterlimit:4;stroke-dasharray:none" />
  <circle
     id="circle4202"
     r="6.257863"
     cy="217.84438"
     cx="168.31465"
     style="fill:#ff0000;fill-opacity:1;fill-rule:nonzero;stroke:none;stroke-opacity:1;stroke-width:0.1;stroke-miterlimit:4;stroke-dasharray:none" />
  <path
     id="path4204"
     d="M 97.962503,228.1188 C 74.764027,224.31526 59.052795,207.57881 57.934368,185.47879 56.860324,164.2198 69.946359,138.94647 101.60405,130.40515 l 0.43272,1.60663 c -30.761169,8.29943 -43.481053,32.78943 -42.438076,53.38268 0.856573,16.94061 11.454997,36.62625 38.634539,41.08221 l -0.27073,1.64213 z"
     style="fill:#ff0000;fill-opacity:1;fill-rule:nonzero;stroke:none;stroke-opacity:1;stroke-width:0.1;stroke-miterlimit:4;stroke-dasharray:none" />
  <circle
     id="circle4206"
     r="6.257863"
     cy="131.30611"
     cx="101.52416"
     style="fill:#ff0000;fill-opacity:1;fill-rule:nonzero;stroke:none;stroke-opacity:1;stroke-width:0.1;stroke-miterlimit:4;stroke-dasharray:none" />
  <path
     id="path4208"
     d="m 206.37,253.16801 c -0.72121,0 -1.45129,-0.0333 -2.19247,-0.10208 -14.06022,-1.30705 -26.79564,-14.29545 -34.07207,-34.74668 l 1.5689,-0.55921 c 7.05231,19.82545 19.25958,32.40331 32.65629,33.64822 7.21207,0.6857 13.59643,-2.22132 16.68985,-7.53828 3.20216,-5.50115 2.2768,-12.61781 -2.54087,-19.51921 l 1.36475,-0.95421 c 5.20379,7.45617 6.15356,15.22303 2.6141,21.31002 -3.1023,5.33028 -9.14269,8.46143 -16.08848,8.46143 z"
     style="fill:#ff0000;fill-opacity:1;fill-rule:nonzero;stroke:none;stroke-opacity:1;stroke-width:0.1;stroke-miterlimit:4;stroke-dasharray:none" />
  <path
     id="path4210"
     d="m 185.60366,85.335219 -1.58222,-0.51927 c 3.78135,-11.466092 10.46084,-18.853478 18.32977,-20.262606 4.8443,-0.874326 9.60649,0.778904 12.41587,4.300616 2.77609,3.47955 3.22435,8.164071 1.23382,12.848592 l -1.52896,-0.650196 c 1.74421,-4.105336 1.37806,-8.172947 -1.00304,-11.159857 -2.42769,-3.042386 -6.57519,-4.460392 -10.82255,-3.69924 -7.2498,1.295955 -13.45884,8.275026 -17.04269,19.141961 z"
     style="fill:#ff0000;fill-opacity:1;fill-rule:nonzero;stroke:none;stroke-opacity:1;stroke-width:0.1;stroke-miterlimit:4;stroke-dasharray:none" />
  <circle
     id="circle4212"
     r="6.257863"
     cy="84.787102"
     cx="184.94458"
     style="fill:#ff0000;fill-opacity:1;fill-rule:nonzero;stroke:none;stroke-opacity:1;stroke-width:0.1;stroke-miterlimit:4;stroke-dasharray:none" />
</svg>
